<svg xmlns="http://www.w3.org/2000/svg" width="315" height="260" viewBox="0 0 315 260">
  <g id="Illustration" transform="translate(0 0)">
    <path id="Path_1994" data-name="Path 1994" d="M285.794,140.658h-1.43V101.9a22.554,22.554,0,0,0-22.677-22.429h-83.01A22.554,22.554,0,0,0,156,101.9v212.6a22.554,22.554,0,0,0,22.677,22.429h83.01a22.554,22.554,0,0,0,22.677-22.429V168.243h1.43Z" transform="translate(-156 -79.476)" fill="#e6e6e6"/>
    <path id="Path_1995" data-name="Path 1995" d="M273.985,96.107H263.149a7.884,7.884,0,0,1-.772,7.444,8.07,8.07,0,0,1-6.677,3.519H208.145a8.07,8.07,0,0,1-6.677-3.519,7.884,7.884,0,0,1-.772-7.445h-10.12a16.843,16.843,0,0,0-16.935,16.75V325.147a16.843,16.843,0,0,0,16.935,16.75h83.41a16.843,16.843,0,0,0,16.935-16.75V112.857a16.843,16.843,0,0,0-16.935-16.75Z" transform="translate(-167.383 -90.272)" fill="#fff"/>
    <path id="Path_1996" data-name="Path 1996" d="M259.412,219.111h-4.98a.657.657,0,0,0-.66.653v2.162a.657.657,0,0,0,.66.653h.825v3.239h3.33v-3.239h.825a.657.657,0,0,0,.66-.653v-2.162A.657.657,0,0,0,259.412,219.111Z" transform="translate(-219.089 -170.119)" fill="#e6e6e6"/>
    <path id="Path_1997" data-name="Path 1997" d="M256.061,245.013A25.125,25.125,0,0,1,251.607,230a.535.535,0,0,0-.422-.533v-.934h-5.26v.921h-.072a.537.537,0,0,0-.539.535q0,.019,0,.039a22.924,22.924,0,0,1-4.2,15.37,1.46,1.46,0,0,0-.269.892l.575,17.6a1.532,1.532,0,0,0,1.527,1.47h11.9a1.532,1.532,0,0,0,1.528-1.5l.222-17.084A3.059,3.059,0,0,0,256.061,245.013Z" transform="translate(-210.75 -176.235)" fill="#e6e6e6"/>
    <path id="Path_1998" data-name="Path 1998" d="M257.655,292.166H247.3a1.068,1.068,0,0,0-.807.367,1.044,1.044,0,0,0-.244.845l1.565,10.06H256.8l1.9-10.026a1.043,1.043,0,0,0-.227-.865,1.068,1.068,0,0,0-.818-.38Z" transform="translate(-214.227 -217.543)" fill="#fff"/>
    <path id="Path_1999" data-name="Path 1999" d="M415.7,369.345h-4.98a.657.657,0,0,0-.66.653v2.162a.657.657,0,0,0,.66.653h.825v3.24h3.33v-3.239h.825a.657.657,0,0,0,.66-.653V370a.657.657,0,0,0-.66-.653Z" transform="translate(-319.935 -267.643)" fill="#e6e6e6"/>
    <path id="Path_2000" data-name="Path 2000" d="M412.345,395.248a25.124,25.124,0,0,1-4.454-15.014.535.535,0,0,0-.421-.533v-.934h-5.26v.921h-.073a.537.537,0,0,0-.539.534c0,.013,0,.026,0,.039a22.924,22.924,0,0,1-4.2,15.37,1.46,1.46,0,0,0-.269.892l.575,17.6a1.532,1.532,0,0,0,1.527,1.47h11.9a1.532,1.532,0,0,0,1.528-1.5l.222-17.084A3.06,3.06,0,0,0,412.345,395.248Z" transform="translate(-311.595 -273.759)" fill="#e6e6e6"/>
    <path id="Path_2001" data-name="Path 2001" d="M413.939,442.4H403.584a1.068,1.068,0,0,0-.807.367,1.043,1.043,0,0,0-.244.845l1.565,10.06h8.985l1.9-10.026a1.043,1.043,0,0,0-.227-.865,1.068,1.068,0,0,0-.818-.38Z" transform="translate(-315.073 -315.067)" fill="#fff"/>
    <path id="Path_2002" data-name="Path 2002" d="M245.068,581.733h-2.362a.311.311,0,0,0-.313.31v1.025a.311.311,0,0,0,.313.31h.391v1.537h1.579v-1.537h.391a.311.311,0,0,0,.313-.31v-1.026a.311.311,0,0,0-.313-.31Z" transform="translate(-211.747 -405.514)" fill="#e6e6e6"/>
    <path id="Path_2003" data-name="Path 2003" d="M243.478,594.019a11.918,11.918,0,0,1-2.113-7.122.254.254,0,0,0-.2-.253V586.2h-2.495v.437h-.034a.255.255,0,0,0-.256.254c0,.006,0,.012,0,.018a10.874,10.874,0,0,1-1.991,7.291.692.692,0,0,0-.128.423l.273,8.346a.727.727,0,0,0,.724.7H242.9a.727.727,0,0,0,.725-.71l.105-8.1A1.451,1.451,0,0,0,243.478,594.019Z" transform="translate(-207.791 -408.415)" fill="#e6e6e6"/>
    <rect id="Rectangle_558" data-name="Rectangle 558" width="5.384" height="2.663" transform="translate(29.491 188.673)" fill="#fff"/>
    <path id="Path_2004" data-name="Path 2004" d="M276.068,581.733h-2.362a.311.311,0,0,0-.313.31v1.025a.311.311,0,0,0,.313.31h.391v1.537h1.579v-1.537h.391a.311.311,0,0,0,.313-.31v-1.026A.311.311,0,0,0,276.068,581.733Z" transform="translate(-231.75 -405.514)" fill="#e6e6e6"/>
    <path id="Path_2005" data-name="Path 2005" d="M274.478,594.019a11.917,11.917,0,0,1-2.113-7.122.254.254,0,0,0-.2-.253V586.2h-2.495v.437h-.034a.255.255,0,0,0-.256.254c0,.006,0,.012,0,.018a10.874,10.874,0,0,1-1.991,7.291.692.692,0,0,0-.128.423l.273,8.346a.727.727,0,0,0,.724.7H273.9a.727.727,0,0,0,.725-.71l.105-8.1A1.451,1.451,0,0,0,274.478,594.019Z" transform="translate(-227.794 -408.415)" fill="#e6e6e6"/>
    <rect id="Rectangle_559" data-name="Rectangle 559" width="5.384" height="2.663" transform="translate(40.488 188.673)" fill="#fff"/>
    <path id="Path_2006" data-name="Path 2006" d="M307.068,581.733h-2.362a.311.311,0,0,0-.313.31v1.025a.311.311,0,0,0,.313.31h.391v1.537h1.579v-1.537h.391a.311.311,0,0,0,.313-.31v-1.026A.311.311,0,0,0,307.068,581.733Z" transform="translate(-251.753 -405.514)" fill="#e6e6e6"/>
    <path id="Path_2007" data-name="Path 2007" d="M305.478,594.019a11.918,11.918,0,0,1-2.113-7.122.254.254,0,0,0-.2-.253V586.2h-2.495v.437h-.034a.255.255,0,0,0-.256.254c0,.006,0,.012,0,.018a10.874,10.874,0,0,1-1.991,7.291.692.692,0,0,0-.128.423l.273,8.346a.727.727,0,0,0,.724.7H304.9a.727.727,0,0,0,.725-.71l.105-8.1A1.451,1.451,0,0,0,305.478,594.019Z" transform="translate(-247.798 -408.415)" fill="#e6e6e6"/>
    <rect id="Rectangle_560" data-name="Rectangle 560" width="5.384" height="2.663" transform="translate(51.484 188.673)" fill="#fff"/>
    <path id="Path_2008" data-name="Path 2008" d="M391.307,523.613h-4.98a.657.657,0,0,0-.66.653v2.162a.657.657,0,0,0,.66.653h.825v3.239h3.33v-3.239h.825a.657.657,0,0,0,.66-.653v-2.162A.657.657,0,0,0,391.307,523.613Z" transform="translate(-304.197 -367.786)" fill="#e6e6e6"/>
    <path id="Path_2009" data-name="Path 2009" d="M387.956,549.516A25.125,25.125,0,0,1,383.5,534.5a.535.535,0,0,0-.421-.533v-.934h-5.26v.921h-.072a.537.537,0,0,0-.539.534c0,.013,0,.026,0,.039a22.924,22.924,0,0,1-4.2,15.37,1.46,1.46,0,0,0-.269.891l.575,17.6a1.532,1.532,0,0,0,1.527,1.47h11.9a1.533,1.533,0,0,0,1.528-1.5l.222-17.084A3.059,3.059,0,0,0,387.956,549.516Z" transform="translate(-295.858 -373.902)" fill="#e6e6e6"/>
    <path id="Path_2010" data-name="Path 2010" d="M389.55,596.668H379.2a1.068,1.068,0,0,0-.807.367,1.043,1.043,0,0,0-.244.845l1.565,10.06h8.985l1.9-10.026a1.043,1.043,0,0,0-.227-.865,1.068,1.068,0,0,0-.818-.38Z" transform="translate(-299.335 -415.209)" fill="#fff"/>
    <path id="Path_2011" data-name="Path 2011" d="M355.231,267.941H325.544c2.076-11.1,1.6-24.5,0-38.914h29.687C353.675,243.44,353.21,256.842,355.231,267.941Z" transform="translate(-265.402 -176.556)" fill="#e6e6e6"/>
    <ellipse id="Ellipse_6" data-name="Ellipse 6" cx="7.153" cy="7.075" rx="7.153" ry="7.075" transform="translate(68.011 63.791)" fill="#fff"/>
    <path id="Path_2012" data-name="Path 2012" d="M278.6,415.151H248.914c2.076-11.1,1.6-24.5,0-38.914H278.6C277.045,390.65,276.58,404.052,278.6,415.151Z" transform="translate(-215.955 -272.117)" fill="#e6e6e6"/>
    <ellipse id="Ellipse_7" data-name="Ellipse 7" cx="7.153" cy="7.075" rx="7.153" ry="7.075" transform="translate(40.828 115.44)" fill="#fff"/>
    <path id="Path_2013" data-name="Path 2013" d="M402.62,275H372.933c2.076-11.1,1.6-24.5,0-38.914H402.62C401.064,250.5,400.6,263.9,402.62,275Z" transform="translate(-295.98 -181.138)" fill="#e6e6e6"/>
    <ellipse id="Ellipse_8" data-name="Ellipse 8" cx="7.153" cy="7.075" rx="7.153" ry="7.075" transform="translate(84.821 66.267)" fill="#fff"/>
    <path id="Path_2014" data-name="Path 2014" d="M402.62,269.958H372.933c2.076-11.1,1.6-24.5,0-38.914H402.62C401.064,245.457,400.6,258.859,402.62,269.958Z" transform="translate(-295.98 -177.866)" fill="#e6e6e6"/>
    <ellipse id="Ellipse_9" data-name="Ellipse 9" cx="7.153" cy="7.075" rx="7.153" ry="7.075" transform="translate(84.821 64.498)" fill="#fff"/>
    <path id="Path_2015" data-name="Path 2015" d="M402.62,275H372.933c2.076-11.1,1.6-24.5,0-38.914H402.62C401.064,250.5,400.6,263.9,402.62,275Z" transform="translate(-295.98 -181.138)" fill="#e6e6e6"/>
    <ellipse id="Ellipse_10" data-name="Ellipse 10" cx="7.153" cy="7.075" rx="7.153" ry="7.075" transform="translate(84.821 66.267)" fill="#fff"/>
    <rect id="Rectangle_561" data-name="Rectangle 561" width="97.286" height="10.613" transform="translate(16.149 89.262)" fill="#e6e6e6"/>
    <rect id="Rectangle_562" data-name="Rectangle 562" width="97.286" height="10.613" transform="translate(16.149 141.972)" fill="#e6e6e6"/>
    <rect id="Rectangle_563" data-name="Rectangle 563" width="97.286" height="10.613" transform="translate(16.149 194.683)" fill="#e6e6e6"/>
    <path id="Path_2016" data-name="Path 2016" d="M908.767,666.924,884.53,649.969c8.174-7.876,15.609-19.09,22.719-31.77l24.237,16.955C921.8,646.032,913.6,656.709,908.767,666.924Z" transform="translate(-626.099 -429.185)" fill="#00b1a1"/>
    <ellipse id="Ellipse_11" data-name="Ellipse 11" cx="7.153" cy="7.075" rx="7.153" ry="7.075" transform="translate(275.521 205.536)" fill="#fff"/>
    <path id="Path_2017" data-name="Path 2017" d="M617.781,536.554h-2.66a.351.351,0,0,0-.353.349v1.155a.351.351,0,0,0,.353.349h.441v1.731h1.779v-1.731h.441a.351.351,0,0,0,.353-.349V536.9a.351.351,0,0,0-.353-.349Z" transform="translate(-452.029 -376.186)" fill="#e6e6e6"/>
    <path id="Path_2018" data-name="Path 2018" d="M615.991,550.392a13.422,13.422,0,0,1-2.38-8.021.286.286,0,0,0-.225-.285v-.5h-2.81v.492h-.039a.287.287,0,0,0-.288.286c0,.007,0,.014,0,.021a12.246,12.246,0,0,1-2.242,8.211.78.78,0,0,0-.144.476l.307,9.4a.819.819,0,0,0,.816.785h6.355a.819.819,0,0,0,.816-.8l.118-9.127A1.635,1.635,0,0,0,615.991,550.392Z" transform="translate(-447.574 -379.453)" fill="#00b1a1"/>
    <path id="Path_2019" data-name="Path 2019" d="M618.93,537.627a.761.761,0,0,1-1.522,0" transform="translate(-453.733 -376.883)" fill="#27282d" opacity="0.2"/>
    <rect id="Rectangle_564" data-name="Rectangle 564" width="5.365" height="3.538" transform="translate(161.814 172.749)" fill="#fff"/>
    <path id="Path_2020" data-name="Path 2020" d="M850.342,641.218h-4.98a.657.657,0,0,0-.66.653v2.162a.657.657,0,0,0,.66.653h.825v3.239h3.33v-3.239h.825a.657.657,0,0,0,.66-.653v-2.162a.657.657,0,0,0-.66-.653Z" transform="translate(-600.398 -444.128)" fill="#e6e6e6"/>
    <path id="Path_2021" data-name="Path 2021" d="M846.991,667.121a25.125,25.125,0,0,1-4.454-15.014.535.535,0,0,0-.422-.533v-.934h-5.26v.921h-.073a.537.537,0,0,0-.539.534c0,.013,0,.026,0,.039a22.924,22.924,0,0,1-4.2,15.37,1.459,1.459,0,0,0-.269.891l.575,17.6a1.532,1.532,0,0,0,1.527,1.47h11.9a1.533,1.533,0,0,0,1.528-1.5l.222-17.084A3.06,3.06,0,0,0,846.991,667.121Z" transform="translate(-592.059 -450.244)" fill="#00b1a1"/>
    <path id="Path_2022" data-name="Path 2022" d="M852.494,643.226a1.425,1.425,0,0,1-2.849,0" transform="translate(-603.588 -445.432)" fill="#27282d" opacity="0.2"/>
    <path id="Path_2023" data-name="Path 2023" d="M848.585,714.273H838.23a1.067,1.067,0,0,0-.807.367,1.043,1.043,0,0,0-.244.845l1.565,10.06h8.985l1.9-10.026a1.043,1.043,0,0,0-.227-.865,1.068,1.068,0,0,0-.818-.38Z" transform="translate(-595.537 -491.552)" fill="#fff"/>
    <path id="Path_2024" data-name="Path 2024" d="M766.545,685H736.858c2.076-11.1,1.6-24.5,0-38.914h29.687C764.989,660.5,764.524,673.9,766.545,685Z" transform="translate(-530.81 -447.288)" fill="#00b1a1"/>
    <ellipse id="Ellipse_12" data-name="Ellipse 12" cx="7.153" cy="7.075" rx="7.153" ry="7.075" transform="translate(213.916 210.117)" fill="#fff"/>
    <path id="Path_2025" data-name="Path 2025" d="M322.243,300.749l6.664-.6,4.241-10.187-7.573-4.195Z" transform="translate(-207.934 -185.505)" fill="#ffb8b8"/>
    <path id="Path_2026" data-name="Path 2026" d="M623.128,477.1h0a3.682,3.682,0,0,0-.314-3.373,3.765,3.765,0,0,0-2.95-1.72l-10.348-.61-1.523,5.011,10.652,2.893A3.769,3.769,0,0,0,623.128,477.1Z" transform="translate(-447.658 -333.888)" fill="#ffb8b8"/>
    <path id="Path_2027" data-name="Path 2027" d="M526.625,429.257l-.114-9.4-22.984-3.627-17.706-20.086a5.841,5.841,0,0,0-7.554-1.022h0a5.694,5.694,0,0,0-1.01,8.744l14.608,17.781Z" transform="translate(-362.265 -283.762)" fill="#00b1a1"/>
    <path id="Path_2028" data-name="Path 2028" d="M463.726,608.273h6.059l15.027-67.2,15.568,20.76,9.088,44.943h5.756l-1.212-48.238L493.716,507H473.722c-5.464,9.78-9.75,19.861-4.847,30.261Z" transform="translate(-354.566 -357.003)" fill="#2f2e41"/>
    <path id="Path_2029" data-name="Path 2029" d="M582.073,794.46a1.548,1.548,0,0,0,.158,1.279,1.582,1.582,0,0,0,1.075.728l14.825,2.6a2.441,2.441,0,0,0,2.767-1.654h0a2.387,2.387,0,0,0-1.186-2.851,22.6,22.6,0,0,1-8.176-7.03c-1.629,1.5-3.451,1.359-5.384.254l-2.051.254Z" transform="translate(-430.886 -539.109)" fill="#2f2e41"/>
    <path id="Path_2030" data-name="Path 2030" d="M455.687,794.46a1.549,1.549,0,0,0,.158,1.279,1.582,1.582,0,0,0,1.075.728l14.825,2.6a2.441,2.441,0,0,0,2.767-1.654h0a2.387,2.387,0,0,0-1.186-2.851,22.6,22.6,0,0,1-8.176-7.03c-1.629,1.5-3.451,1.359-5.384.254l-2.051.254Z" transform="translate(-349.333 -539.109)" fill="#2f2e41"/>
    <ellipse id="Ellipse_13" data-name="Ellipse 13" cx="8.482" cy="8.389" rx="8.482" ry="8.389" transform="translate(116.884 91.424)" fill="#ffb8b8"/>
    <path id="Path_2031" data-name="Path 2031" d="M475.736,432.749l22.114-.6-6.494-20.216c4.036-6.4-.026-12.792-5.774-19.184l-4.544-3-7.27-.6h0a17.546,17.546,0,0,0-4.806,12.3A78.482,78.482,0,0,0,475.736,432.749Z" transform="translate(-357.943 -280.503)" fill="#00b1a1"/>
    <path id="Path_2032" data-name="Path 2032" d="M606.481,532.691h0a3.7,3.7,0,0,0-.975-5.953l-9.27-4.587-3.394,4.014,8.642,6.8A3.788,3.788,0,0,0,606.481,532.691Z" transform="translate(-437.881 -366.837)" fill="#ffb8b8"/>
    <path id="Path_2033" data-name="Path 2033" d="M535.078,452.81l3.635-8.689-19.688-12.278-8.29-25.356a5.8,5.8,0,0,0-6.538-3.878h0a5.794,5.794,0,0,0-4.011,2.8,5.677,5.677,0,0,0-.395,4.842l6.358,22.031Z" transform="translate(-377.602 -289.178)" fill="#00b1a1"/>
    <path id="Path_2034" data-name="Path 2034" d="M470.13,336.076c0,3.264,2.143,8.32,4.847,10.487,1.819,1.458,4.223,1.4,5.15-.6a23.863,23.863,0,0,1,10-9.887c7.69-4.036-2.727-10.94-10-9.887C474.664,326.98,470.13,330.615,470.13,336.076Z" transform="translate(-358.699 -239.558)" fill="#2f2e41"/>
    <ellipse id="Ellipse_14" data-name="Ellipse 14" cx="6.059" cy="5.992" rx="6.059" ry="5.992" transform="translate(110.523 80.039)" fill="#2f2e41"/>
    <path id="Path_2035" data-name="Path 2035" d="M494.095,307.616a6.016,6.016,0,0,0-5.6-5.97c.151-.011.3-.023.454-.023a5.993,5.993,0,1,1,0,11.985c-.153,0-.3-.012-.454-.023A6.016,6.016,0,0,0,494.095,307.616Z" transform="translate(-370.546 -223.682)" fill="#2f2e41"/>
    <ellipse id="Ellipse_15" data-name="Ellipse 15" cx="1.363" cy="1.798" rx="1.363" ry="1.798" transform="translate(124.154 99.214)" fill="#ffb8b8"/>
    <path id="Path_2036" data-name="Path 2036" d="M598.858,504.322H504.545l-19.972-93.38H467.529v-4.19h20.478l19.972,93.38h90.879Z" transform="translate(-301.682 -264.041)" fill="#3f3d56"/>
    <ellipse id="Ellipse_16" data-name="Ellipse 16" cx="9.078" cy="8.979" rx="9.078" ry="8.979" transform="translate(207.606 239.383)" fill="#3f3d56"/>
    <ellipse id="Ellipse_17" data-name="Ellipse 17" cx="9.078" cy="8.979" rx="9.078" ry="8.979" transform="translate(275.388 239.383)" fill="#3f3d56"/>
    <path id="Path_2037" data-name="Path 2037" d="M792.535,612.281H700.774l-16.19-79.136H807.729a4.371,4.371,0,0,1,3.306,1.506,4.271,4.271,0,0,1,.992,3.464l-15.194,70.531A4.315,4.315,0,0,1,792.535,612.281Zm-90.764-1.2h90.764a3.113,3.113,0,0,0,3.1-2.624l15.194-70.531a3.081,3.081,0,0,0-.715-2.5,3.154,3.154,0,0,0-2.386-1.087H686.053Z" transform="translate(-497.079 -373.973)" fill="#3f3d56"/>
    <path id="Path_2038" data-name="Path 2038" d="M605.226,533.479l-10.6-78.186,1.194-.2,10.6,78.187Z" transform="translate(-383.692 -295.424)" fill="#3f3d56"/>
    <path id="Path_2039" data-name="Path 2039" d="M788.538,532.881l-1.195-.192L797.636,455.1l1.195.192Z" transform="translate(-508.049 -295.428)" fill="#3f3d56"/>
    <rect id="Rectangle_565" data-name="Rectangle 565" width="1.21" height="78.187" transform="translate(251.19 159.77)" fill="#3f3d56"/>
    <rect id="Rectangle_566" data-name="Rectangle 566" width="1.2" height="117.166" transform="translate(193.684 181.917) rotate(-89.861)" fill="#3f3d56"/>
    <rect id="Rectangle_567" data-name="Rectangle 567" width="102.935" height="1.205" transform="translate(199.654 218.399) rotate(-0.392)" fill="#3f3d56"/>
    <ellipse id="Ellipse_18" data-name="Ellipse 18" cx="6.657" cy="3.592" rx="6.657" ry="3.592" transform="translate(161.005 140.615)" fill="#3f3d56"/>
  </g>
</svg>
